<svg xmlns="http://www.w3.org/2000/svg" viewBox="0 0 313.56 125.46"><defs><style>.cls-1{fill:#ff0;}</style></defs><g id="Layer_2" data-name="Layer 2"><g id="Layer_1-2" data-name="Layer 1"><path class="cls-1" d="M34.67,69.92V45.8H23.73V69.92H0V1.17H23.73V23.83H34.67V1.17H58.5V69.92Z"/><path class="cls-1" d="M63.38,35.55C63.38,13.87,76.07,0,96.78,0S130,13.87,130,35.55c0,22.26-12.6,35.64-33.2,35.64S63.38,57.81,63.38,35.55Zm43,0c0-9.67-3.23-13.67-9.57-13.67s-9.67,4-9.67,13.67,4,13.57,9.67,13.57S106.35,45.21,106.35,35.55Z"/><path class="cls-1" d="M174.12,69.92,156.73,43.16V69.92H135V1.17h22.85l14.55,22.76V1.17h22V69.92Z"/><path class="cls-1" d="M221.38,69.92c-13.09,0-22.27-6.74-22.27-21.19,0-6.35,2.44-12.79,8.5-15.53-4.88-2.63-7-8.4-7-14.35,0-10.26,6.25-17.68,19.33-17.68h31V23H225.48c-2,0-2.93,1-2.93,3s.88,2.93,2.93,2.93h22.46V40.72H226.07c-2.64,0-3.81,1.17-3.81,3.62,0,2.24,1.17,3.41,3.81,3.41H251V69.92Z"/><path class="cls-1" d="M257.22,69.92V48H283c4.88,0,6.44-2.05,6.44-5.27h-10c-14.26,0-22.36-7.52-22.36-22.27V1.17H281V19.92c0,5.76,2.06,7.42,6.35,7.42h2.44V1.17h23.73V43.36c0,15-8.88,26.56-23.24,26.56Z"/><path class="cls-1" d="M137.58,94.91h-2.36v4.66h2.36A2.14,2.14,0,0,0,140,97.24,2.17,2.17,0,0,0,137.58,94.91Zm0,0h-2.36v4.66h2.36A2.14,2.14,0,0,0,140,97.24,2.17,2.17,0,0,0,137.58,94.91Zm0,0h-2.36v4.66h2.36A2.14,2.14,0,0,0,140,97.24,2.17,2.17,0,0,0,137.58,94.91Zm0,0h-2.36v4.66h2.36A2.14,2.14,0,0,0,140,97.24,2.17,2.17,0,0,0,137.58,94.91Zm0,0h-2.36v4.66h2.36A2.14,2.14,0,0,0,140,97.24,2.17,2.17,0,0,0,137.58,94.91Zm82.17,0H217.4v4.66h2.35a2.14,2.14,0,0,0,2.42-2.33A2.17,2.17,0,0,0,219.75,94.91Zm0,0H217.4v4.66h2.35a2.14,2.14,0,0,0,2.42-2.33A2.17,2.17,0,0,0,219.75,94.91Zm-82.17,0h-2.36v4.66h2.36A2.14,2.14,0,0,0,140,97.24,2.17,2.17,0,0,0,137.58,94.91Zm19.35-19.45c-82.56,0-149.5,11.19-149.5,25s66.94,25,149.5,25,149.5-11.2,149.5-25S239.5,75.46,156.93,75.46ZM100,94.91H92.51v3.23h6.31v5.17H92.51v8H86.19V89.59H100Zm13.58,16.9a11.34,11.34,0,1,1,11.63-11.34C125.21,106.79,120.44,111.81,113.58,111.81Zm26.63-.46-3.2-6.77h-1.79v6.77h-6.16V89.59h8.19c5.35,0,9.13,2.51,9.13,7.65a6.55,6.55,0,0,1-3.84,6.32l4.23,7.79Zm25.28,0h-15V89.59H165v5.32h-8.25v2.9h7.07v5h-7.07V106h8.71Zm13,.31h-.31L166.82,89.59h7l2.69,5.77a32.58,32.58,0,0,1,1.84,4.51h.07a32.58,32.58,0,0,1,1.84-4.51l2.69-5.77h6.95Zm28.87-.31h-15V89.59h14.57v5.32h-8.25v2.9h7.07v5h-7.07V106h8.71Zm15,0-3.2-6.77H217.4v6.77h-6.17V89.59h8.19c5.35,0,9.13,2.51,9.13,7.65a6.55,6.55,0,0,1-3.84,6.32l4.23,7.79Zm-2.63-16.44H217.4v4.66h2.35a2.14,2.14,0,0,0,2.42-2.33A2.17,2.17,0,0,0,219.75,94.91Zm-82.17,0h-2.36v4.66h2.36A2.14,2.14,0,0,0,140,97.24,2.17,2.17,0,0,0,137.58,94.91Zm0,0h-2.36v4.66h2.36A2.14,2.14,0,0,0,140,97.24,2.17,2.17,0,0,0,137.58,94.91Zm0,0h-2.36v4.66h2.36A2.14,2.14,0,0,0,140,97.24,2.17,2.17,0,0,0,137.58,94.91Zm0,0h-2.36v4.66h2.36A2.14,2.14,0,0,0,140,97.24,2.17,2.17,0,0,0,137.58,94.91Zm0,0h-2.36v4.66h2.36A2.14,2.14,0,0,0,140,97.24,2.17,2.17,0,0,0,137.58,94.91Z"/><ellipse class="cls-1" cx="113.58" cy="100.47" rx="5.26" ry="5.56"/></g></g></svg>