<svg width="185" height="72" viewBox="0 0 185 72" fill="none" xmlns="http://www.w3.org/2000/svg">
<g clip-path="url(#clip0_6_207)">
<path d="M131.533 58.7468C134.79 56.8427 136.603 53.4695 136.603 49.128C136.603 41.8703 131.62 36.9956 124.205 36.9956H101.559V71.0098H109.474V60.9339H123.739L128.342 70.3569H137.027L131.533 58.7468ZM109.474 44.6668H123.109H123.847C126.691 44.6668 128.461 46.3642 128.461 49.1062C128.461 51.8483 125.866 53.4587 123.218 53.5457H109.474V44.6668Z" fill="#FCF705"/>
<path d="M49.667 15.9625C50.5788 15.2273 51.309 14.291 51.8004 13.2265C52.2919 12.162 52.5315 10.9981 52.5004 9.82561C52.5004 3.86279 48.158 0.0326538 41.4597 0.0326538H0V33.3287H41.6334C48.3751 33.3287 53.2712 28.9763 53.2712 22.8502C53.3121 21.4884 53.0019 20.1391 52.3706 18.9325C51.7392 17.726 50.808 16.703 49.667 15.9625ZM41.3403 25.9296H7.92501V19.7056H41.3403C42.7516 19.7056 45.1182 20.1082 45.1182 22.8394C45.1182 24.8088 43.7395 25.9296 41.3403 25.9296ZM7.92501 7.43178H41.0472C41.818 7.43178 44.304 7.61676 44.304 10.0432C44.304 12.4697 42.0025 12.6438 41.0472 12.6438H7.92501V7.43178Z" fill="#FCF705"/>
<path d="M88.1956 0.184967V18.6828C88.1956 28.5845 81.3887 35.494 71.6616 35.494C61.6631 35.494 54.9431 28.7369 54.9431 18.6828V0.184967H62.6836V18.204C62.6836 23.9166 66.0381 27.3223 71.6616 27.3223C77.0897 27.3223 80.4551 23.8295 80.4551 18.204V0.184967H88.1956Z" fill="#FCF705"/>
<path d="M97.521 52.6426C97.521 52.4576 97.521 52.2726 97.521 52.0877C97.521 51.7395 97.4667 51.3804 97.4341 50.9996C96.4462 42.2947 89.9108 36.5495 80.8567 36.5495C71.8027 36.5495 65.4301 42.3165 64.4639 50.9996C64.4639 51.3369 64.3988 51.6851 64.3771 52.0224C64.3554 52.3597 64.3771 52.9146 64.3771 53.3607V55.1452C64.3771 55.5914 64.3771 56.0375 64.3771 56.4401C64.3771 56.8427 64.3771 57.1582 64.4748 57.5282C65.4518 66.233 71.9981 71.9782 81.0413 71.9782C90.0845 71.9782 96.4679 66.2004 97.445 57.5282C97.445 57.18 97.5101 56.8427 97.5318 56.4401C97.5535 56.0375 97.5318 55.5587 97.5318 55.1126V52.6426H97.521ZM89.8022 54.7209C89.8022 60.3355 86.426 63.8283 80.9979 63.8283C75.3852 63.8283 72.0307 60.4226 72.0307 54.7209V53.8722C72.0307 48.2466 75.3961 44.7538 80.8242 44.7538C86.4477 44.7538 89.8022 48.1705 89.8022 53.8722V54.7209Z" fill="#FCF705"/>
<path d="M60.3169 36.8542V71.4124H52.8587L52.5873 71.1839L30.3104 52.6426L30.2019 52.7296L7.90329 71.2818L7.68617 71.4668H0.162842V36.9738H7.90329V61.5215L28.7797 44.7756L30.2996 43.3066L31.9063 44.83L52.5873 61.4236V36.8542H60.3169Z" fill="#FCF705"/>
<path d="M90.5187 0H115.01V7.15974L99.0191 26.7457H115.206V34.0795H90.7141V26.7457L106.054 7.26855H90.5187V0Z" fill="#FCF705"/>
<path d="M112.969 0H137.45V7.15974L121.47 26.7457H137.645V34.0795H113.165V26.7457L128.494 7.26855H112.969V0Z" fill="#FCF705"/>
<path d="M136.538 0H161.019V7.15974L145.038 26.7457H161.214V34.0795H136.733V26.7457L152.062 7.26855H136.538V0Z" fill="#FCF705"/>
<path d="M160.107 0H184.587V7.15974L168.607 26.7457H184.783V34.0795H160.302V26.7457L175.631 7.26855H160.107V0Z" fill="#FCF705"/>
<path d="M168.705 36.9956H140.653V70.7269H168.705C178.475 70.7269 184.989 63.9153 184.989 53.7633C185.011 43.8833 178.302 36.9956 168.705 36.9956ZM168.238 62.9034H148.339V44.7973H168.238C173.666 44.7973 177.075 48.2249 177.075 53.7307C177.075 59.4868 173.786 62.9034 168.238 62.9034Z" fill="#FCF705"/>
</g>
<defs>
<clipPath id="clip0_6_207">
<rect width="185" height="72" fill="white"/>
</clipPath>
</defs>
</svg>
